HIERARCHY
ROOT root
{
	OFFSET	0	13.1	24.9
	CHANNELS 6  Xposition Yposition Zposition Xrotation Yrotation Zrotation
	JOINT spine_1
	{
		OFFSET	0	9.99999	0
		CHANNELS 3  Xrotation Yrotation Zrotation
		JOINT spine_2
		{
			OFFSET	0	112	-10
			CHANNELS 3  Xrotation Yrotation Zrotation
			JOINT spine_3
			{
				OFFSET	0	206.5	19.3
				CHANNELS 3  Xrotation Yrotation Zrotation
				JOINT spine_4
				{
					OFFSET	0	110.4	14.6
					CHANNELS 3  Xrotation Yrotation Zrotation
					JOINT neck_1
					{
						OFFSET	0	71.8	-50.3
						CHANNELS 3  Xrotation Yrotation Zrotation
						JOINT neck_2
						{
							OFFSET	0	86.2	-25.8
							CHANNELS 3  Xrotation Yrotation Zrotation
							JOINT head_ee
							{
								OFFSET	0	179.8	-8.7
								CHANNELS 3  Xrotation Yrotation Zrotation
								End Site
								{
									OFFSET	1	0	0
								}
							}
						}
					}
					JOINT left_clavicle
					{
						OFFSET	-43.2	22.4	-70.8
						CHANNELS 3  Xrotation Yrotation Zrotation
						JOINT left_shoulder
						{
							OFFSET	-93.9	-5.79999	48.7
							CHANNELS 3  Xrotation Yrotation Zrotation
							JOINT left_elbow
							{
								OFFSET	-291.4	-30.8	15.2
								CHANNELS 3  Xrotation Yrotation Zrotation
								JOINT left_lowarm_twist
								{
									OFFSET	-110.7	-3.89999	13.6
									CHANNELS 3  Xrotation Yrotation Zrotation
									JOINT left_hand
									{
										OFFSET	-110.7	-3.89999	13.6
										CHANNELS 3  Xrotation Yrotation Zrotation
										JOINT left_ee
										{
											OFFSET	-80.8	-5.10001	12.1
											CHANNELS 3  Xrotation Yrotation Zrotation
											End Site
											{
												OFFSET	1	0	0
											}
										}
									}
								}
							}
						}
					}
					JOINT right_clavicle
					{
						OFFSET	43.2	22.4	-70.8
						CHANNELS 3  Xrotation Yrotation Zrotation
						JOINT right_shoulder
						{
							OFFSET	93.9	-5.79999	48.7
							CHANNELS 3  Xrotation Yrotation Zrotation
							JOINT right_elbow
							{
								OFFSET	291.4	-30.8	15.2
								CHANNELS 3  Xrotation Yrotation Zrotation
								JOINT right_lowarm_twist
								{
									OFFSET	110.7	-3.89999	13.6
									CHANNELS 3  Xrotation Yrotation Zrotation
									JOINT right_hand
									{
										OFFSET	110.7	-3.89999	13.6
										CHANNELS 3  Xrotation Yrotation Zrotation
										JOINT right_ee
										{
											OFFSET	80.8	-5.10001	12.1
											CHANNELS 3  Xrotation Yrotation Zrotation
											End Site
											{
												OFFSET	1	0	0
											}
										}
									}
								}
							}
						}
					}
				}
			}
		}
	}
	JOINT left_hip
	{
		OFFSET	-82.8	-127.5	0.300001
		CHANNELS 3  Xrotation Yrotation Zrotation
		JOINT left_knee
		{
			OFFSET	-28.2	-396.7	2.2
			CHANNELS 3  Xrotation Yrotation Zrotation
			JOINT left_ankle
			{
				OFFSET	-11.7	-411.3	35.4
				CHANNELS 3  Xrotation Yrotation Zrotation
				JOINT left_toes
				{
					OFFSET	0	-60	-88.6
					CHANNELS 3  Xrotation Yrotation Zrotation
					JOINT left_foot_ee
					{
						OFFSET	-22.5	-16.5	-42.2
						CHANNELS 3  Xrotation Yrotation Zrotation
						End Site
						{
							OFFSET	1	0	0
						}
					}
				}
			}
		}
	}
	JOINT right_hip
	{
		OFFSET	82.8	-127.5	0.300001
		CHANNELS 3  Xrotation Yrotation Zrotation
		JOINT right_knee
		{
			OFFSET	28.2	-396.7	2.2
			CHANNELS 3  Xrotation Yrotation Zrotation
			JOINT right_ankle
			{
				OFFSET	11.7	-411.3	35.4
				CHANNELS 3  Xrotation Yrotation Zrotation
				JOINT right_toes
				{
					OFFSET	0	-60	-88.6
					CHANNELS 3  Xrotation Yrotation Zrotation
					JOINT right_foot_ee
					{
						OFFSET	22.5	-16.5	-42.2
						CHANNELS 3  Xrotation Yrotation Zrotation
						End Site
						{
							OFFSET	1	0	0
						}
					}
				}
			}
		}
	}
}
MOTION
Frames: 13
Frame Time: 0.02
2968.92124878 707.205 -1615.19963706 16.241848353 53.4097097153 -5.20464596446 -6.76288 -0.0463505 -0.570549 -6.76269 -0.00995164 -0.572342 -6.76222 0.175933 -0.544722 -6.76262 0.0876977 -0.565671 -15.7922 13.8167 8.11175 -16.0625 21.8142 12.4489 -0.0 0.0 -0.0 9.03137 8.19571 17.2122 6.61008 -10.6532 51.4435 1.13877 -29.427 0.299047 -74.3941 -7.10746 5.32003 -0.748883 24.1669 5.32196 -0.0 0.0 -0.0 9.30386 19.0151 -17.9203 0.0440985 18.7367 -56.4541 0.88224 23.6068 -0.184368 84.3301 4.34649 8.83477 -5.2251 -25.8308 19.4396 0.0 0.0 0.0 20.4219 65.7233 -25.1894 7.51337 -0.381449 -1.08854 9.99695 -22.2258 -1.64231 -1.98312 0.0 0.0 -0.0 0.0 -0.0 18.5938 27.6371 -17.9181 -42.3381 0.62218 -6.32246 13.8872 -6.35767 1.94641 -14.4598 0.0 0.0 0.0 0.0 0.0 
2960.397081 707.775 -1612.48662753 15.5784337206 53.7917600147 -4.70514354399 -6.72383 -0.0524527 -0.69582 -6.72357 -0.00807061 -0.697748 -6.72291 0.217873 -0.662911 -6.72351 0.110447 -0.688999 -15.5841 14.1038 8.31751 -15.8503 22.2072 12.6983 -0.0 0.0 -0.0 8.8857 7.68879 16.9761 7.92156 -11.4198 50.999 1.21344 -31.009 0.33663 -74.7863 -7.15758 5.3195 -0.758701 24.0797 5.23022 -0.0 0.0 -0.0 9.19548 20.5345 -17.5688 -0.742158 16.8867 -56.5145 0.805485 21.7526 -0.154769 84.3813 4.3526 8.8372 -4.98735 -25.4896 18.2647 0.0 0.0 0.0 18.7487 65.8347 -24.2363 7.8704 -0.403108 -1.13896 10.2927 -22.2542 -1.6893 -1.31382 0.0 0.0 -0.0 0.0 -0.0 20.6498 29.2871 -19.5579 -40.7392 0.514462 -6.10144 13.9366 -6.10484 1.95317 -14.4631 0.0 0.0 0.0 0.0 0.0 
2961.25668216 707.775 -1609.30414469 15.8955845632 54.6035609251 -5.09617541554 -6.72383 -0.0524527 -0.69582 -6.72357 -0.00807061 -0.697748 -6.72291 0.217873 -0.662911 -6.72351 0.110447 -0.688999 -15.5841 14.1038 8.31751 -15.8503 22.2072 12.6983 -0.0 0.0 -0.0 8.8857 7.68879 16.9761 7.92156 -11.4198 50.999 1.21344 -31.009 0.33663 -74.7863 -7.15758 5.3195 -0.758701 24.0797 5.23022 -0.0 0.0 -0.0 9.19548 20.5345 -17.5688 -0.742158 16.8867 -56.5145 0.805485 21.7526 -0.154769 84.3813 4.3526 8.8372 -4.98735 -25.4896 18.2647 0.0 0.0 0.0 18.7487 65.8347 -24.2363 7.8704 -0.403108 -1.13896 10.2927 -22.2542 -1.6893 -1.31382 0.0 0.0 -0.0 0.0 -0.0 20.6498 29.2871 -19.5579 -40.7392 0.514462 -6.10144 13.9366 -6.10484 1.95317 -14.4631 0.0 0.0 0.0 0.0 0.0 
2952.8337178 702.584 -1610.2190836 14.0935243127 54.0643088123 -2.71739776888 -6.6915 -0.0586849 -1.13666 -6.69078 0.0137579 -1.13809 -6.68963 0.380255 -1.07278 -6.69118 0.206068 -1.11937 -14.5298 15.1029 8.95811 -14.7583 23.5301 13.408 -0.0 0.0 -0.0 8.6213 6.86571 16.5317 10.6176 -12.9928 50.1189 1.41786 -35.081 0.448173 -75.9725 -7.30907 5.31582 -0.775876 23.7282 4.98774 -0.0 0.0 -0.0 9.55199 25.5604 -17.9096 -3.42844 10.5852 -57.6309 0.552787 15.3143 -0.0743195 84.4144 4.35654 8.83877 -4.11913 -24.354 13.8903 0.0 0.0 0.0 17.3399 65.4733 -23.6076 9.13879 -0.482596 -1.31701 11.2395 -22.3505 -1.83907 0.97463 -0.0 -0.0 -0.0 0.0 -0.0 25.5724 33.5128 -23.3075 -36.7508 0.273103 -5.53804 13.8037 -5.36863 1.93637 -14.4757 0.0 0.0 0.0 0.0 0.0 
2884.83137321 688.869 -1604.89722339 17.7542098904 50.2337453035 -6.03993947907 -6.51093 -0.138613 -1.16079 -6.51018 -0.0644732 -1.16726 -6.50726 0.312023 -1.12663 -6.50901 0.130189 -1.16176 -15.5429 18.8102 12.3877 -15.8951 28.9183 18.1445 -0.0 0.0 -0.0 7.44767 5.62715 14.3689 12.6714 -16.5986 46.7447 1.89961 -43.2548 0.753219 -77.2619 -7.47356 5.30823 -1.6889 25.4268 0.559059 -0.0 0.0 -0.0 8.26966 24.0244 -15.2164 -6.52918 9.19108 -60.5391 0.500658 13.9291 -0.0611593 85.0154 4.42837 8.86684 -4.44522 -29.2359 12.5242 0.0 0.0 0.0 4.92544 62.5387 -17.6171 2.10449 -0.0923654 -0.309702 18.238 -27.3069 -3.04627 6.39697 -0.0 -0.0 -0.0 0.0 -0.0 27.8795 33.5584 -23.9602 -16.0373 -0.321776 -2.43204 3.42849 14.3718 0.538832 -19.7745 0.0 0.0 0.0 0.0 0.0 
2885.24261327 688.869 -1603.05873925 17.887698546 50.5771995443 -6.21317137346 -6.51093 -0.138613 -1.16079 -6.51018 -0.0644732 -1.16726 -6.50726 0.312023 -1.12663 -6.50901 0.130189 -1.16176 -15.5429 18.8102 12.3877 -15.8951 28.9183 18.1445 -0.0 0.0 -0.0 7.44767 5.62715 14.3689 12.6714 -16.5986 46.7447 1.89961 -43.2548 0.753219 -77.2619 -7.47356 5.30823 -1.6889 25.4268 0.559059 -0.0 0.0 -0.0 8.26966 24.0244 -15.2164 -6.52918 9.19108 -60.5391 0.500658 13.9291 -0.0611593 85.0154 4.42837 8.86684 -4.44522 -29.2359 12.5242 0.0 0.0 0.0 4.92544 62.5387 -17.6171 2.10449 -0.0923654 -0.309702 18.238 -27.3069 -3.04627 6.39697 -0.0 -0.0 -0.0 0.0 -0.0 27.8795 33.5584 -23.9602 -16.0373 -0.321776 -2.43204 3.42849 14.3718 0.538832 -19.7745 0.0 0.0 0.0 0.0 0.0 
2873.56069337 687.24 -1605.59262012 18.2706777823 49.8475374764 -6.32384230794 -6.49547 -0.103537 -1.27187 -6.49458 -0.0224018 -1.27588 -6.49225 0.386308 -1.21621 -6.49426 0.189399 -1.26195 -16.0121 18.7564 12.2581 -16.4269 29.0219 18.1527 -0.0 0.0 -0.0 7.50194 6.27842 14.4486 12.8586 -16.627 45.9662 1.97397 -44.3534 0.804695 -77.9168 -7.557 5.30294 -1.8289 26.5573 0.310253 -0.0 0.0 -0.0 8.06928 23.5554 -14.8182 -6.83458 9.12884 -61.1425 0.504256 14.0253 -0.0620284 85.1319 4.44233 8.8722 -4.40285 -29.0165 12.4386 0.0 0.0 0.0 3.48099 62.0748 -17.7602 2.04466 -0.0895825 -0.300944 20.1876 -27.7312 -3.35236 7.20059 -0.0 -0.0 -0.0 0.0 -0.0 27.9196 33.6156 -23.748 -13.705 -0.317509 -2.07424 2.86797 15.1934 0.454281 -21.248 0.0 0.0 0.0 0.0 0.0 
2873.01938209 687.24 -1608.22829926 18.0883359884 49.3751618345 -6.08444607522 -6.49547 -0.103537 -1.27187 -6.49458 -0.0224018 -1.27588 -6.49225 0.386308 -1.21621 -6.49426 0.189399 -1.26195 -16.0121 18.7564 12.2581 -16.4269 29.0219 18.1527 -0.0 0.0 -0.0 7.50194 6.27842 14.4486 12.8586 -16.627 45.9662 1.97397 -44.3534 0.804695 -77.9168 -7.557 5.30294 -1.8289 26.5573 0.310253 -0.0 0.0 -0.0 8.06928 23.5554 -14.8182 -6.83458 9.12884 -61.1425 0.504256 14.0253 -0.0620284 85.1319 4.44233 8.8722 -4.40285 -29.0165 12.4386 0.0 0.0 0.0 3.48099 62.0748 -17.7602 2.04466 -0.0895825 -0.300944 20.1876 -27.7312 -3.35236 7.20059 -0.0 -0.0 -0.0 0.0 -0.0 27.9196 33.6156 -23.748 -13.705 -0.317509 -2.07424 2.86797 15.1934 0.454281 -21.248 0.0 0.0 0.0 0.0 0.0 
2873.09897374 687.24 -1607.83337478 18.1153319169 49.4459195499 -6.11999551207 -6.49547 -0.103537 -1.27187 -6.49458 -0.0224018 -1.27588 -6.49225 0.386308 -1.21621 -6.49426 0.189399 -1.26195 -16.0121 18.7564 12.2581 -16.4269 29.0219 18.1527 -0.0 0.0 -0.0 7.50194 6.27842 14.4486 12.8586 -16.627 45.9662 1.97397 -44.3534 0.804695 -77.9168 -7.557 5.30294 -1.8289 26.5573 0.310253 -0.0 0.0 -0.0 8.06928 23.5554 -14.8182 -6.83458 9.12884 -61.1425 0.504256 14.0253 -0.0620284 85.1319 4.44233 8.8722 -4.40285 -29.0165 12.4386 0.0 0.0 0.0 3.48099 62.0748 -17.7602 2.04466 -0.0895825 -0.300944 20.1876 -27.7312 -3.35236 7.20059 -0.0 -0.0 -0.0 0.0 -0.0 27.9196 33.6156 -23.748 -13.705 -0.317509 -2.07424 2.86797 15.1934 0.454281 -21.248 0.0 0.0 0.0 0.0 0.0 
2847.03887833 680.426 -1622.86784472 18.0168907643 47.0506418441 -6.08321149329 -6.40046 -0.157868 -1.34528 -6.39945 -0.0719527 -1.3526 -6.39563 0.361653 -1.30535 -6.39798 0.150979 -1.34607 -17.8449 18.6162 13.0776 -18.3581 28.805 19.3933 -0.0 0.0 -0.0 7.64899 8.61397 14.62 13.8334 -17.1297 44.3113 2.23701 -47.9303 0.994455 -79.8343 -7.80081 5.28194 -2.0749 28.229 -0.231626 -0.0 0.0 -0.0 7.39045 22.3963 -13.4302 -8.1872 8.95367 -62.9511 0.512131 14.2355 -0.0639509 85.3063 4.46324 8.88016 -4.24544 -28.1435 12.1462 0.0 0.0 0.0 -0.633537 61.9805 -15.7041 0.812169 -0.0342946 -0.119912 24.3203 -29.0005 -4.00044 8.85048 -0.0 -0.0 -0.0 0.0 -0.0 29.2098 33.1872 -25.0814 -8.20756 -0.249911 -1.23375 0.0741239 16.3334 0.011942 -24.1724 0.0 0.0 0.0 0.0 0.0 
2832.38401027 676.841 -1628.29541278 17.7561605882 46.2995530767 -5.84748962614 -6.35414 -0.147203 -1.41831 -6.35302 -0.0566628 -1.42481 -6.34931 0.398002 -1.36927 -6.35188 0.176779 -1.41493 -18.3732 18.6482 13.3531 -18.9208 28.8658 19.8204 -0.0 0.0 -0.0 8.01682 10.7297 15.1617 13.8628 -17.3286 44.8424 2.4757 -50.7982 1.17564 -81.2643 -7.98201 5.26093 -2.17182 28.4398 -0.651487 -0.0 0.0 -0.0 7.38852 22.1675 -13.4462 -8.31399 8.81677 -63.1418 0.479193 13.3538 -0.0560967 85.3161 4.46442 8.8806 -4.22296 -28.4241 11.8363 0.0 0.0 0.0 -1.87527 62.2142 -15.6068 -0.401483 0.0163232 0.0594495 26.4241 -29.866 -4.3339 9.1884 -0.0 -0.0 -0.0 0.0 -0.0 28.9162 33.2853 -24.4587 -5.31189 -0.181972 -0.794618 -2.8026 16.4481 -0.455261 -24.929 0.0 0.0 0.0 0.0 0.0 
2821.98339944 675.46 -1636.71236434 18.1335271136 45.5415658311 -5.99067500275 -6.37886 -0.128794 -1.51433 -6.37759 -0.0321836 -1.51945 -6.37416 0.451875 -1.45108 -6.37704 0.217061 -1.50421 -19.0774 18.6919 13.6967 -19.6751 28.9648 20.3738 -0.0 0.0 -0.0 8.59761 13.7898 15.9338 14.0113 -17.6141 45.8567 2.86972 -54.8652 1.48982 -83.3075 -8.23972 5.22301 -2.30059 28.7419 -1.19382 -0.0 0.0 -0.0 7.41432 21.8709 -13.5287 -8.42475 8.64418 -63.4368 0.433142 12.1103 -0.0459469 85.3045 4.46302 8.88007 -4.19381 -28.825 11.4119 0.0 0.0 0.0 -3.72026 62.5708 -15.559 -2.12936 0.0817998 0.316528 29.4264 -31.1155 -4.80326 9.67219 -0.0 -0.0 -0.0 0.0 -0.0 29.4668 32.9726 -23.9762 -1.04695 -0.0416908 -0.155258 -6.91625 16.5829 -1.13451 -26.0079 0.0 0.0 0.0 0.0 0.0 
2808.81806891 678.434 -1640.86939277 16.9392157976 44.705553557 -5.3988099742 -6.14605 -0.107393 -1.63623 -6.14456 -0.00307177 -1.63975 -6.14163 0.51138 -1.55799 -6.14493 0.25894 -1.61918 -19.5753 18.3943 13.989 -20.1445 28.3744 20.6521 -0.0 0.0 -0.0 8.9742 14.6253 16.4983 14.2093 -17.681 45.8895 2.93721 -55.489 1.54522 -83.4576 -8.25859 5.21986 -2.35704 28.5373 -1.60103 -0.0 0.0 -0.0 7.28196 21.6449 -13.258 -8.40932 8.60827 -63.8431 0.408463 11.439 -0.0409108 85.2773 4.45976 8.87884 -4.19922 -28.6606 11.5495 0.0 0.0 0.0 -4.99744 62.8963 -14.8833 -3.39652 0.124868 0.506227 30.0117 -31.236 -4.8857 9.99837 -0.0 -0.0 -0.0 0.0 -0.0 29.4855 33.0037 -23.7145 -1.20882 -0.0478828 -0.179326 -6.86461 16.4238 -1.12446 -26.3191 0.0 0.0 0.0 0.0 0.0 
